<svg width="24" height="24" viewBox="0 0 24 24" fill="none" xmlns="http://www.w3.org/2000/svg">
  <path d="M12 1L8.5 4.5H11V9H13V4.5H15.5L12 1ZM4.22 10.22L5.64 8.81C4.4 7.85 2.82 7.37 1.19 7.8C1.49 8.95 2.01 10.02 2.76 10.95L4.22 10.22ZM16.22 8.81L17.64 10.22L19.09 9.49C19.86 8.55 20.37 7.49 20.68 6.34C19.05 5.91 17.47 6.39 16.22 8.81ZM12 11C10.34 11 9 12.34 9 14H7C7 11.79 8.79 10 11 10V8C6.58 8 3 11.58 3 16H5C5 12.69 7.69 10 11 10V12H13V10C16.31 10 19 12.69 19 16H21C21 11.58 17.42 8 13 8V10C15.21 10 17 11.79 17 14H15C15 12.34 13.66 11 12 11ZM11 18H13V22H11V18Z" fill="#000000"/>
</svg>
