<svg width="24" height="24" viewBox="0 0 24 24" fill="none" xmlns="http://www.w3.org/2000/svg">
  <path d="M12 13C10.34 13 9 14.34 9 16H7C7 13.79 8.79 12 11 12V10C6.58 10 3 13.58 3 18H5C5 14.69 7.69 12 11 12V14H13V12C16.31 12 19 14.69 19 18H21C21 13.58 17.42 10 13 10V12C15.21 12 17 13.79 17 16H15C15 14.34 13.66 13 12 13ZM16.22 8.81L17.64 7.4L19.09 8.13C19.86 7.19 20.37 6.13 20.68 4.98C19.05 4.55 17.47 5.03 16.22 7.45L16.22 8.81ZM7.78 7.4L6.36 8.81L4.91 8.08C4.14 9.02 3.63 10.08 3.32 11.23C4.95 11.66 6.53 11.18 7.78 8.76L7.78 7.4ZM12 5C10.89 5 10 4.11 10 3H14C14 4.11 13.11 5 12 5ZM11 18H13V22H11V18Z" fill="#000000"/>
</svg>
