<svg width="24" height="24" viewBox="0 0 24 24" fill="none" xmlns="http://www.w3.org/2000/svg">
  <path d="M12 5C7 5 2.73 8.11 1 12C2.73 15.89 7 19 12 19C17 19 21.27 15.89 23 12C21.27 8.11 17 5 12 5ZM12 17C8.69 17 5.73 14.88 4.25 12C5.73 9.12 8.69 7 12 7C15.31 7 18.27 9.12 19.75 12C18.27 14.88 15.31 17 12 17ZM12 9C10.34 9 9 10.34 9 12C9 13.66 10.34 15 12 15C13.66 15 15 13.66 15 12C15 10.34 13.66 9 12 9ZM12 13C11.45 13 11 12.55 11 12C11 11.45 11.45 11 12 11C12.55 11 13 11.45 13 12C13 12.55 12.55 13 12 13Z" fill="#000000"/>
</svg>
